<?xml version="1.0" encoding="UTF-8" standalone="no"?>
<!-- Created with Inkscape (http://www.inkscape.org/) -->

<svg
   xmlns:dc="http://purl.org/dc/elements/1.1/"
   xmlns:cc="http://creativecommons.org/ns#"
   xmlns:rdf="http://www.w3.org/1999/02/22-rdf-syntax-ns#"
   xmlns:svg="http://www.w3.org/2000/svg"
   xmlns="http://www.w3.org/2000/svg"
   xmlns:sodipodi="http://sodipodi.sourceforge.net/DTD/sodipodi-0.dtd"
   xmlns:inkscape="http://www.inkscape.org/namespaces/inkscape"
   width="30.427084mm"
   height="128.32292mm"
   viewBox="0 0 30.427086 128.32294"
   version="1.1"
   id="svg8"
   inkscape:version="0.92.4 5da689c313, 2019-01-14"
   sodipodi:docname="ReTunes-ForFour.svg">
  <defs
     id="defs2" />
  <sodipodi:namedview
     id="base"
     pagecolor="#ffffff"
     bordercolor="#666666"
     borderopacity="1.0"
     inkscape:pageopacity="0.0"
     inkscape:pageshadow="2"
     inkscape:zoom="1.5439367"
     inkscape:cx="-232.66373"
     inkscape:cy="239.25614"
     inkscape:document-units="mm"
     inkscape:current-layer="layer2"
     showgrid="false"
     units="mm"
     inkscape:snap-bbox="true"
     inkscape:snap-page="true"
     inkscape:bbox-nodes="false"
     inkscape:snap-bbox-edge-midpoints="false"
     inkscape:window-width="1920"
     inkscape:window-height="1012"
     inkscape:window-x="0"
     inkscape:window-y="0"
     inkscape:window-maximized="1"
     inkscape:snap-bbox-midpoints="true"
     inkscape:snap-nodes="false"
     showguides="true"
     inkscape:guide-bbox="true" />
  <metadata
     id="metadata5">
    <rdf:RDF>
      <cc:Work
         rdf:about="">
        <dc:format>image/svg+xml</dc:format>
        <dc:type
           rdf:resource="http://purl.org/dc/dcmitype/StillImage" />
        <dc:title />
      </cc:Work>
    </rdf:RDF>
  </metadata>
  <g
     inkscape:label="Layer 1"
     inkscape:groupmode="layer"
     id="layer1"
     transform="translate(0,-168.67706)"
     style="display:inline">
    <rect
       style="display:inline;opacity:1;vector-effect:none;fill:#e5e5e5;fill-opacity:1;fill-rule:evenodd;stroke:none;stroke-width:0.64834726;stroke-linecap:butt;stroke-linejoin:miter;stroke-miterlimit:4;stroke-dasharray:none;stroke-dashoffset:0;stroke-opacity:1;paint-order:normal"
       id="backgroundID"
       width="30.427084"
       height="128.32292"
       x="-3.1789145e-07"
       y="168.67706"
       inkscape:label="#background" />
    <g
       id="g1547"
       transform="matrix(1.6411797,0,0,1.6411797,-3.9127435,-187.17684)">
      <rect
         inkscape:export-ydpi="86.926582"
         inkscape:export-xdpi="86.926582"
         ry="0"
         y="290.13635"
         x="9.5425825"
         height="4.2652245"
         width="4.2228069"
         id="rect4183"
         style="fill:#1b1818;fill-opacity:1;fill-rule:nonzero;stroke:none;stroke-width:0.02979262;stroke-linecap:round;stroke-linejoin:miter;stroke-miterlimit:4;stroke-dasharray:none;stroke-opacity:1" />
      <g
         transform="matrix(0.04353058,0,0,-0.04353053,3.8004912,302.23557)"
         id="g906">
        <g
           id="g4185"
           transform="translate(-3.820465)">
          <g
             transform="translate(193.1475,202.5166)"
             id="g14">
            <path
               inkscape:connector-curvature="0"
               id="path16"
               style="fill:#ffffff;fill-opacity:1;fill-rule:nonzero;stroke:none"
               d="m 0,0 h -33.201 v 33.2 l -13,13 V -13 l 59.202,-10e-4 z" />
          </g>
          <g
             transform="translate(213.6533,223.0225)"
             id="g18">
            <path
               inkscape:connector-curvature="0"
               id="path20"
               style="fill:#c9e02e;fill-opacity:1;fill-rule:nonzero;stroke:none"
               d="M 0,0 H -33.2 V 33.2 L -46.201,46.201 -46.2,-13 13.001,-13.001 Z" />
          </g>
          <g
             transform="translate(194.2939,228.0225)"
             id="g22">
            <path
               inkscape:connector-curvature="0"
               id="path24"
               style="fill:#ffffff;fill-opacity:1;fill-rule:nonzero;stroke:none"
               d="M 0,0 10.825,10.154 17.167,3.392 20.91,29.211 -5.097,27.127 1.247,20.365 -8.091,11.606 V 0 Z" />
          </g>
        </g>
      </g>
    </g>
    <g
       id="titleLabelID"
       transform="matrix(1.2742718,0,0,1.2742718,-4.2063602,171.14725)"
       inkscape:label="#Title"
       style="fill:#1b1818;fill-opacity:1">
      <path
         d="M 8.188287,3.2570979 V 4.1787758 H 9.32814 V 4.6240305 H 8.188287 V 5.928628 H 7.6628864 V 2.8118428 h 1.9591219 v 0.4452551 z"
         style="font-style:normal;font-weight:normal;font-size:10.66666698px;line-height:1.25;font-family:sans-serif;letter-spacing:-0.5px;word-spacing:0px;fill:#1b1818;fill-opacity:1;stroke:none;stroke-width:0.41742656"
         id="path3219"
         inkscape:connector-curvature="0" />
      <path
         d="m 10.651098,5.9508906 q -0.463065,0 -0.7391227,-0.3339413 Q 9.635917,5.283008 9.635917,4.7665124 q 0,-0.5164961 0.2760583,-0.8459847 0.2760577,-0.3339412 0.7391227,-0.3339412 0.463066,0 0.739124,0.3339412 0.276058,0.3294886 0.276058,0.8459847 0,0.5164956 -0.276058,0.8504369 -0.276058,0.3339413 -0.739124,0.3339413 z m 0,-1.981385 q -0.267153,0 -0.405181,0.2537954 -0.133577,0.2493431 -0.133577,0.5432114 0,0.1781017 0.04453,0.3472989 0.04453,0.1691967 0.17365,0.3116782 0.129124,0.1424819 0.320583,0.1424819 0.276059,0 0.405183,-0.2448904 0.133576,-0.2493427 0.133576,-0.5565686 0,-0.1202189 -0.02226,-0.2404377 -0.02227,-0.1202189 -0.0757,-0.2537954 Q 11.038471,4.1387028 10.922705,4.0541042 10.811391,3.9695056 10.6511,3.9695056 Z"
         style="font-style:normal;font-weight:normal;font-size:10.66666698px;line-height:1.25;font-family:sans-serif;letter-spacing:-0.25px;word-spacing:0px;fill:#1b1818;fill-opacity:1;stroke:none;stroke-width:0.41742656"
         id="path3221"
         inkscape:connector-curvature="0" />
      <path
         d="m 12.43462,3.9027174 q 0.09796,-0.1424815 0.231533,-0.2270801 0.133576,-0.089051 0.249343,-0.089051 h 0.24489 v 0.4452551 q -0.276058,0 -0.391825,0.053431 -0.173649,0.080146 -0.253795,0.2404377 -0.08015,0.1602918 -0.08015,0.4408025 V 5.928628 H 11.958197 V 3.6088491 h 0.476423 z"
         style="font-style:normal;font-variant:normal;font-weight:bold;font-stretch:normal;font-size:10.66666698px;line-height:1.25;font-family:Garuda;-inkscape-font-specification:'Garuda Bold';letter-spacing:0px;word-spacing:0px;fill:#1b1818;fill-opacity:1;stroke:none;stroke-width:0.41742656"
         id="path3223"
         inkscape:connector-curvature="0" />
      <path
         d="m 15.693881,3.2570979 v 0.9216779 h 1.139853 V 4.6240305 H 15.693881 V 5.928628 H 15.16848 V 2.8118428 h 1.959122 v 0.4452551 z"
         style="font-style:normal;font-weight:normal;font-size:10.66666698px;line-height:1.25;font-family:sans-serif;letter-spacing:-0.5px;word-spacing:0px;fill:#1b1818;fill-opacity:1;stroke:none;stroke-width:0.41742656"
         id="path3225"
         inkscape:connector-curvature="0" />
      <path
         d="m 18.156692,5.9508906 q -0.463065,0 -0.739123,-0.3339413 -0.276058,-0.3339413 -0.276058,-0.8504369 0,-0.5164961 0.276058,-0.8459847 0.276058,-0.3339412 0.739123,-0.3339412 0.463066,0 0.739124,0.3339412 0.276058,0.3294886 0.276058,0.8459847 0,0.5164956 -0.276058,0.8504369 -0.276058,0.3339413 -0.739124,0.3339413 z m 0,-1.981385 q -0.267153,0 -0.405181,0.2537954 -0.133577,0.2493431 -0.133577,0.5432114 0,0.1781017 0.04452,0.3472989 0.04453,0.1691967 0.17365,0.3116782 0.129124,0.1424819 0.320583,0.1424819 0.276059,0 0.405183,-0.2448904 0.133576,-0.2493427 0.133576,-0.5565686 0,-0.1202189 -0.02226,-0.2404377 -0.02226,-0.1202189 -0.07569,-0.2537954 -0.05343,-0.1335765 -0.169197,-0.2181751 -0.111314,-0.084599 -0.271605,-0.084599 z"
         style="font-style:normal;font-weight:normal;font-size:10.66666698px;line-height:1.25;font-family:sans-serif;letter-spacing:-0.5px;word-spacing:0px;fill:#1b1818;fill-opacity:1;stroke:none;stroke-width:0.41742656"
         id="path3227"
         inkscape:connector-curvature="0" />
      <path
         d="M 20.704104,5.928628 V 5.621402 q -0.129124,0.1959121 -0.271605,0.2627003 -0.13803,0.066788 -0.356204,0.066788 -0.17365,0 -0.293869,-0.053431 -0.120218,-0.057883 -0.182554,-0.1291239 -0.06234,-0.075694 -0.0935,-0.2048174 -0.03117,-0.1335765 -0.04007,-0.22708 -0.0045,-0.093504 -0.0045,-0.2537954 V 3.6088491 h 0.476423 v 1.4737942 q 0,0.4853281 0.271606,0.4853281 0.231532,0 0.360656,-0.1870071 0.133577,-0.1870071 0.133577,-0.3606566 V 3.6088491 h 0.476422 V 5.928628 Z"
         style="font-style:normal;font-weight:normal;font-size:10.66666698px;line-height:1.25;font-family:sans-serif;letter-spacing:-0.25px;word-spacing:0px;fill:#1b1818;fill-opacity:1;stroke:none;stroke-width:0.41742656"
         id="path3229"
         inkscape:connector-curvature="0" />
      <path
         d="m 22.091347,3.9027174 q 0.09796,-0.1424815 0.231533,-0.2270801 0.133576,-0.089051 0.249343,-0.089051 h 0.24489 v 0.4452551 q -0.276058,0 -0.391824,0.053431 -0.17365,0.080146 -0.253796,0.2404377 -0.08015,0.1602918 -0.08015,0.4408025 V 5.928628 H 21.614925 V 3.6088491 h 0.476422 z"
         style="font-style:normal;font-variant:normal;font-weight:bold;font-stretch:normal;font-size:10.66666698px;line-height:1.25;font-family:Garuda;-inkscape-font-specification:'Garuda Bold';letter-spacing:0px;word-spacing:0px;fill:#1b1818;fill-opacity:1;stroke:none;stroke-width:0.41742656"
         id="path3231"
         inkscape:connector-curvature="0" />
    </g>
    <path
       inkscape:connector-curvature="0"
       id="beat1LabelID"
       style="font-style:normal;font-variant:normal;font-weight:normal;font-stretch:normal;font-size:10.66666698px;line-height:1.25;font-family:Garuda;-inkscape-font-specification:Garuda;letter-spacing:0px;word-spacing:0px;fill:#1b1818;fill-opacity:1;stroke:none;stroke-width:0.39280719"
       d="m 16.419146,187.4302 h -0.372905 v -2.33799 q -0.289105,0.28073 -0.737429,0.44833 v -0.36034 q 0.645252,-0.29329 0.867318,-0.75 h 0.243016 z"
       inkscape:label="#Beat1" />
    <path
       inkscape:connector-curvature="0"
       id="beat2LabelID"
       style="font-style:normal;font-variant:normal;font-weight:normal;font-stretch:normal;font-size:10.66666698px;line-height:1.25;font-family:Garuda;-inkscape-font-specification:Garuda;letter-spacing:0px;word-spacing:0px;fill:#1b1818;fill-opacity:1;stroke:none;stroke-width:0.38527367"
       d="m 16.835896,197.35819 q 0,0.21781 -0.123287,0.43973 -0.119179,0.22192 -0.31233,0.41507 -0.189039,0.18904 -0.386299,0.36164 -0.19726,0.16849 -0.390412,0.34931 -0.19315,0.18083 -0.275341,0.32055 h 1.487669 v 0.29589 h -1.943834 q 0,-0.16849 0.09041,-0.34931 0.09452,-0.18493 0.246575,-0.34932 0.152055,-0.16438 0.29589,-0.29589 0.147946,-0.13561 0.30411,-0.26712 0.156164,-0.13151 0.209589,-0.18904 0.431507,-0.44795 0.431507,-0.74384 0,-0.22602 -0.160275,-0.36575 -0.160273,-0.14383 -0.398629,-0.14383 -0.267123,0 -0.423287,0.16027 -0.156165,0.15616 -0.156165,0.43151 l -0.373972,-0.037 q 0.08219,-0.85069 0.957534,-0.85069 0.410957,0 0.665752,0.22192 0.254794,0.22192 0.254794,0.59589 z"
       inkscape:label="#Beat2" />
    <path
       inkscape:connector-curvature="0"
       id="beat3LabelID"
       style="font-style:normal;font-variant:normal;font-weight:normal;font-stretch:normal;font-size:10.66666698px;line-height:1.25;font-family:Garuda;-inkscape-font-specification:Garuda;letter-spacing:0px;word-spacing:0px;fill:#1b1818;fill-opacity:1;stroke:none;stroke-width:0.37904322"
       d="m 16.804006,210.72738 q 0,0.42453 -0.274933,0.67116 -0.27089,0.24663 -0.679245,0.24663 -0.408356,0 -0.646901,-0.22641 -0.234501,-0.23046 -0.278976,-0.60243 l 0.359838,-0.0445 q 0.117251,0.58221 0.566039,0.58221 0.262803,0 0.428571,-0.1779 0.165768,-0.1779 0.165768,-0.4407 0,-0.25472 -0.157681,-0.4124 -0.15364,-0.15768 -0.408358,-0.15768 -0.07682,0 -0.246631,0.0404 l 0.03639,-0.30728 h 0.08895 q 0.2345,0 0.396226,-0.13746 0.161725,-0.14151 0.161725,-0.35984 0,-0.21024 -0.137466,-0.33558 -0.133423,-0.12938 -0.33558,-0.12938 -0.440701,0 -0.525606,0.53369 l -0.351752,-0.0606 q 0.141509,-0.76416 0.873315,-0.76416 0.380053,0 0.606469,0.21833 0.230458,0.21429 0.230458,0.54583 0,0.41644 -0.404312,0.59838 0.533692,0.12129 0.533692,0.71968 z"
       inkscape:label="#Beat3" />
    <path
       inkscape:connector-curvature="0"
       id="beat4LabelID"
       style="font-style:normal;font-variant:normal;font-weight:normal;font-stretch:normal;font-size:10.66666698px;line-height:1.25;font-family:Garuda;-inkscape-font-specification:Garuda;letter-spacing:0px;word-spacing:0px;fill:#1b1818;fill-opacity:1;stroke:none;stroke-width:0.39280719"
       d="m 16.12585,223.64754 v -0.75838 h -1.303072 v -0.30168 l 1.374301,-1.93994 h 0.301676 v 1.93994 h 0.406425 v 0.30168 h -0.406425 v 0.75838 z m 0,-1.06006 v -1.34916 l -0.934357,1.34916 z"
       inkscape:label="#Beat4" />
    <g
       transform="matrix(0.75,0,0,0.75,1.8859168,179.84005)"
       id="clockLabelID"
       inkscape:label="#Clock">
      <path
         d="m 4.3145652,26.399957 q 0,0.727762 0.3126685,1.15364 0.3126685,0.420485 0.938005,0.420485 0.9272235,0 1.132075,-0.964958 l 0.512129,0.12938 q -0.3396225,1.288408 -1.606468,1.288408 -0.8625335,0 -1.331536,-0.539085 -0.4690025,-0.53908 -0.4690025,-1.48787 0,-0.921833 0.479784,-1.44474 0.4797845,-0.528305 1.331536,-0.528305 1.191374,0 1.525606,1.126687 l -0.5013475,0.118595 q -0.2533695,-0.792452 -1.03504,-0.792452 -0.6361185,0 -0.9649595,0.404312 -0.32345,0.398925 -0.32345,1.115903 z"
         style="font-style:normal;font-variant:normal;font-weight:normal;font-stretch:normal;font-size:10.66666698px;line-height:1.25;font-family:Garuda;-inkscape-font-specification:Garuda;letter-spacing:0px;word-spacing:0px;fill:#1b1818;fill-opacity:1;stroke:none;stroke-width:0.50539064"
         id="path3356"
         inkscape:connector-curvature="0" />
      <path
         d="m 7.7539106,28.362222 v -3.859835 h 0.479784 v 3.859835 z"
         style="font-style:normal;font-variant:normal;font-weight:normal;font-stretch:normal;font-size:10.66666698px;line-height:1.25;font-family:Garuda;-inkscape-font-specification:Garuda;letter-spacing:0px;word-spacing:0px;fill:#1b1818;fill-opacity:1;stroke:none;stroke-width:0.50539064"
         id="path3358"
         inkscape:connector-curvature="0" />
      <path
         d="m 8.9614475,28.362222 v -3.859835 h 0.479784 v 2.19946 l 1.1159025,-1.132075 h 0.619946 l -1.078167,1.03504 1.185983,1.75741 h -0.5876 l -0.9272235,-1.428573 -0.328841,0.32345 v 1.105123 z"
         style="font-style:normal;font-variant:normal;font-weight:normal;font-stretch:normal;font-size:10.66666698px;line-height:1.25;font-family:Garuda;-inkscape-font-specification:Garuda;letter-spacing:0px;word-spacing:0px;fill:#1b1818;fill-opacity:1;stroke:none;stroke-width:0.50539064"
         id="path3360"
         inkscape:connector-curvature="0" />
    </g>
    <g
       aria-label="Rst"
       transform="matrix(0.38633408,0,0,0.38633408,-0.28971665,145.84613)"
       style="font-style:normal;font-weight:normal;font-size:10.66666698px;line-height:1.25;font-family:sans-serif;letter-spacing:0px;word-spacing:0px;fill:#1b1818;fill-opacity:1;stroke:none"
       id="resetLabelID"
       inkscape:label="#Reset">
      <path
         d="m 12.740203,189.10974 v -7.63733 h 3.381334 q 1.44,0 2.08,0.46933 0.650666,0.45867 0.650666,1.64267 0,1.77066 -2.154666,2.05866 0.757333,0.30934 1.461333,1.38667 l 1.322667,2.08 h -1.28 l -0.992,-1.58933 q -0.256,-0.40534 -0.362667,-0.56534 -0.106667,-0.16 -0.352,-0.45866 -0.234667,-0.29867 -0.426667,-0.416 -0.192,-0.128 -0.490666,-0.23467 -0.298667,-0.10667 -0.64,-0.10667 h -1.184 v 3.37067 z m 1.013334,-4.26667 h 2.176 q 1.909333,0 1.909333,-1.25866 0,-1.216 -1.664,-1.216 h -2.421333 z"
         style="font-style:normal;font-variant:normal;font-weight:normal;font-stretch:normal;font-family:Garuda;-inkscape-font-specification:Garuda;fill:#1b1818;fill-opacity:1"
         id="path3363"
         inkscape:connector-curvature="0" />
      <path
         d="m 22.201524,186.74174 q -0.533334,-0.128 -0.842667,-0.23467 -0.309333,-0.10666 -0.64,-0.29866 -0.330667,-0.192 -0.48,-0.48 -0.149333,-0.288 -0.149333,-0.69334 0,-0.26666 0.08533,-0.512 0.096,-0.256 0.309333,-0.50133 0.213334,-0.256 0.629334,-0.40533 0.426666,-0.16 1.002666,-0.16 0.597334,0 1.024,0.128 0.426667,0.11733 0.661334,0.352 0.234666,0.23466 0.352,0.48 0.117333,0.24533 0.170666,0.58666 l -0.928,0.11734 q -0.128,-0.896 -1.216,-0.896 -1.141333,0 -1.141333,0.71466 0,0.32 0.245333,0.46934 0.245334,0.14933 0.917334,0.33066 0.096,0.0213 0.352,0.096 0.266666,0.064 0.352,0.096 0.096,0.0213 0.32,0.096 0.224,0.064 0.309333,0.10667 0.096,0.0427 0.266667,0.128 0.181333,0.0853 0.256,0.16 0.07467,0.0747 0.181333,0.192 0.106667,0.11733 0.149333,0.24533 0.05333,0.11734 0.08533,0.27734 0.04267,0.16 0.04267,0.34133 0,0.50133 -0.234666,0.864 -0.224,0.36267 -0.586667,0.55467 -0.352,0.18133 -0.704,0.256 -0.352,0.0853 -0.693333,0.0853 -2.048,0 -2.368,-1.78133 l 0.928,-0.14934 q 0.149333,1.16267 1.44,1.16267 1.269333,0 1.269333,-0.88533 0,-0.096 -0.02133,-0.17067 -0.01067,-0.0853 -0.064,-0.14933 -0.05333,-0.064 -0.096,-0.10667 -0.04267,-0.0533 -0.138667,-0.096 -0.096,-0.0533 -0.16,-0.0747 -0.05333,-0.032 -0.192,-0.064 -0.138667,-0.0427 -0.213333,-0.064 -0.064,-0.0213 -0.234667,-0.0533 -0.170667,-0.0427 -0.245333,-0.064 z"
         style="font-style:normal;font-variant:normal;font-weight:normal;font-stretch:normal;font-family:Garuda;-inkscape-font-specification:Garuda;fill:#1b1818;fill-opacity:1"
         id="path3365"
         inkscape:connector-curvature="0" />
      <path
         d="m 26.745509,187.54174 q 0,0.45867 0.106667,0.66133 0.117333,0.20267 0.405333,0.20267 0.064,0 0.202667,-0.0107 0.149333,-0.0213 0.213333,-0.0213 l 0.138667,0.736 q -0.330667,0.064 -0.714667,0.064 -0.437333,0 -0.714667,-0.096 -0.266667,-0.10667 -0.394667,-0.352 -0.117333,-0.24533 -0.16,-0.50133 -0.032,-0.26667 -0.032,-0.736 v -3.18934 h -0.682666 v -0.71466 h 0.682666 v -1.376 l 0.949334,-0.56534 v 1.94134 h 0.928 v 0.71466 h -0.928 z"
         style="font-style:normal;font-variant:normal;font-weight:normal;font-stretch:normal;font-family:Garuda;-inkscape-font-specification:Garuda;fill:#1b1818;fill-opacity:1"
         id="path3367"
         inkscape:connector-curvature="0" />
    </g>
    <path
       inkscape:connector-curvature="0"
       id="path885"
       style="font-style:normal;font-variant:normal;font-weight:normal;font-stretch:normal;font-size:10.66666698px;line-height:1.25;font-family:Garuda;-inkscape-font-specification:Garuda;letter-spacing:0px;word-spacing:0px;display:inline;fill:#000000;fill-opacity:1;stroke:none;stroke-width:0.39280686"
       d="m 15.671243,232.29006 h 0.385473 l 1.210893,3 h -0.427373 l -0.343576,-0.89664 h -1.265362 l -0.343574,0.89664 h -0.427375 z m -0.305867,1.7514 h 0.997206 l -0.326815,-0.86313 q -0.134076,-0.36452 -0.171787,-0.57402 -0.03771,0.2095 -0.171788,0.57402 z" />
    <path
       inkscape:connector-curvature="0"
       id="path887"
       style="font-style:normal;font-variant:normal;font-weight:normal;font-stretch:normal;font-size:10.66666698px;line-height:1.25;font-family:Garuda;-inkscape-font-specification:Garuda;letter-spacing:0px;word-spacing:0px;display:inline;fill:#000000;fill-opacity:1;stroke:none;stroke-width:0.39280728"
       d="m 15.859789,244.36251 q 0.498603,0 0.745809,0.21788 0.251398,0.21369 0.251398,0.54888 0,0.43157 -0.427374,0.63269 0.561452,0.17178 0.561452,0.73323 0,0.86732 -1.114524,0.86732 h -1.139666 v -3 z m -0.07961,1.26118 q 0.372903,0 0.523741,-0.11313 0.15503,-0.11313 0.15503,-0.33101 0,-0.28491 -0.175979,-0.3729 -0.171787,-0.0922 -0.553072,-0.0922 h -0.594973 v 0.90922 z m 0.812849,0.8715 q 0,-0.25558 -0.167598,-0.38547 -0.167598,-0.13408 -0.599163,-0.13408 h -0.691341 v 1.03492 h 0.741621 q 0.385474,0 0.548883,-0.13408 0.167598,-0.13408 0.167598,-0.38129 z" />
    <path
       inkscape:connector-curvature="0"
       id="path874"
       style="font-style:normal;font-variant:normal;font-weight:normal;font-stretch:normal;font-size:10.66666698px;line-height:1.25;font-family:Garuda;-inkscape-font-specification:Garuda;letter-spacing:0px;word-spacing:0px;display:inline;fill:#000000;fill-opacity:1;stroke:none;stroke-width:0.39280745"
       d="m 14.489677,259.43497 1.160613,-1.56704 -1.026536,-1.43296 h 0.473462 l 0.783522,1.11871 q 0.582403,-0.76676 0.842178,-1.11871 h 0.431565 l -1.055865,1.41201 1.139665,1.58799 h -0.490224 l -0.88408,-1.2486 -0.900838,1.2486 z" />
    <path
       inkscape:connector-curvature="0"
       id="path876"
       style="font-style:normal;font-variant:normal;font-weight:normal;font-stretch:normal;font-size:10.66666698px;line-height:1.25;font-family:Garuda;-inkscape-font-specification:Garuda;letter-spacing:0px;word-spacing:0px;display:inline;fill:#000000;fill-opacity:1;stroke:none;stroke-width:0.39280745"
       d="m 15.646101,271.50742 v -1.26955 l -1.156425,-1.73045 h 0.481845 l 0.900837,1.37011 0.905028,-1.37011 h 0.460895 l -1.194133,1.73045 v 1.26955 z" />
    <path
       inkscape:connector-curvature="0"
       id="path878"
       style="font-style:normal;font-variant:normal;font-weight:normal;font-stretch:normal;font-size:10.66666698px;line-height:1.25;font-family:Garuda;-inkscape-font-specification:Garuda;letter-spacing:0px;word-spacing:0px;display:inline;fill:#000000;fill-opacity:1;stroke:none;stroke-width:0.39280707"
       d="m 14.678226,283.57987 v -0.37291 l 1.822625,-2.27514 h -1.650839 v -0.35195 h 2.153631 v 0.35195 l -1.868715,2.29609 h 1.914804 v 0.35196 z" />
  </g>
  <g
     inkscape:groupmode="layer"
     id="layer2"
     inkscape:label="components"
     transform="translate(0,-0.1770806)"
     style="display:none">
    <circle
       style="display:inline;opacity:1;vector-effect:none;fill:#ff0000;fill-opacity:1;fill-rule:evenodd;stroke:none;stroke-width:1;stroke-linecap:butt;stroke-linejoin:miter;stroke-miterlimit:4;stroke-dasharray:none;stroke-dashoffset:0;stroke-opacity:1;paint-order:normal"
       id="countControl1ID"
       cx="8.6019993"
       cy="89.43499"
       r="4"
       inkscape:label="Count1" />
    <circle
       r="4"
       cy="22.291975"
       cx="7.5436664"
       id="clockID"
       style="display:inline;opacity:1;vector-effect:none;fill:#00ff00;fill-opacity:1;fill-rule:evenodd;stroke:none;stroke-width:1;stroke-linecap:butt;stroke-linejoin:miter;stroke-miterlimit:4;stroke-dasharray:none;stroke-dashoffset:0;stroke-opacity:1;paint-order:normal"
       inkscape:label="Clock" />
    <circle
       style="display:inline;opacity:1;vector-effect:none;fill:#0000ff;fill-opacity:1;fill-rule:evenodd;stroke:none;stroke-width:1;stroke-linecap:butt;stroke-linejoin:miter;stroke-miterlimit:4;stroke-dasharray:none;stroke-dashoffset:0;stroke-opacity:1;paint-order:normal"
       id="fillAD"
       cx="22.936333"
       cy="65.290085"
       r="4"
       inkscape:label="FillA" />
    <circle
       inkscape:label="Beat1"
       r="4"
       cy="17.000301"
       cx="22.936333"
       id="beat1ID"
       style="display:inline;opacity:1;vector-effect:none;fill:#0000ff;fill-opacity:1;fill-rule:evenodd;stroke:none;stroke-width:1;stroke-linecap:butt;stroke-linejoin:miter;stroke-miterlimit:4;stroke-dasharray:none;stroke-dashoffset:0;stroke-opacity:1;paint-order:normal" />
    <circle
       style="display:inline;opacity:1;vector-effect:none;fill:#0000ff;fill-opacity:1;fill-rule:evenodd;stroke:none;stroke-width:1;stroke-linecap:butt;stroke-linejoin:miter;stroke-miterlimit:4;stroke-dasharray:none;stroke-dashoffset:0;stroke-opacity:1;paint-order:normal"
       id="beat2ID"
       cx="22.936333"
       cy="29.072746"
       r="4"
       inkscape:label="Beat2" />
    <circle
       style="display:inline;opacity:1;vector-effect:none;fill:#0000ff;fill-opacity:1;fill-rule:evenodd;stroke:none;stroke-width:1;stroke-linecap:butt;stroke-linejoin:miter;stroke-miterlimit:4;stroke-dasharray:none;stroke-dashoffset:0;stroke-opacity:1;paint-order:normal"
       id="beat4ID"
       cx="22.936333"
       cy="53.21764"
       r="4"
       inkscape:label="Beat4" />
    <circle
       inkscape:label="Beat3"
       r="4"
       cy="41.145195"
       cx="22.936333"
       id="beat3ID"
       style="display:inline;opacity:1;vector-effect:none;fill:#0000ff;fill-opacity:1;fill-rule:evenodd;stroke:none;stroke-width:1;stroke-linecap:butt;stroke-linejoin:miter;stroke-miterlimit:4;stroke-dasharray:none;stroke-dashoffset:0;stroke-opacity:1;paint-order:normal" />
    <circle
       inkscape:label="Reset"
       style="display:inline;opacity:1;vector-effect:none;fill:#00ff00;fill-opacity:1;fill-rule:evenodd;stroke:none;stroke-width:1;stroke-linecap:butt;stroke-linejoin:miter;stroke-miterlimit:4;stroke-dasharray:none;stroke-dashoffset:0;stroke-opacity:1;paint-order:normal"
       id="resetID"
       cx="7.5436664"
       cy="40.086849"
       r="4" />
    <circle
       inkscape:label="Count2"
       r="4"
       cy="101.50744"
       cx="8.6019993"
       id="countControl2ID"
       style="display:inline;opacity:1;vector-effect:none;fill:#ff0000;fill-opacity:1;fill-rule:evenodd;stroke:none;stroke-width:1;stroke-linecap:butt;stroke-linejoin:miter;stroke-miterlimit:4;stroke-dasharray:none;stroke-dashoffset:0;stroke-opacity:1;paint-order:normal" />
    <circle
       style="display:inline;opacity:1;vector-effect:none;fill:#ff0000;fill-opacity:1;fill-rule:evenodd;stroke:none;stroke-width:1;stroke-linecap:butt;stroke-linejoin:miter;stroke-miterlimit:4;stroke-dasharray:none;stroke-dashoffset:0;stroke-opacity:1;paint-order:normal"
       id="countControl3ID"
       cx="8.6019993"
       cy="113.57989"
       r="4"
       inkscape:label="Count3" />
    <circle
       inkscape:label="FillBs"
       r="4"
       cy="77.362534"
       cx="22.936333"
       id="fillBID"
       style="display:inline;opacity:1;vector-effect:none;fill:#0000ff;fill-opacity:1;fill-rule:evenodd;stroke:none;stroke-width:1;stroke-linecap:butt;stroke-linejoin:miter;stroke-miterlimit:4;stroke-dasharray:none;stroke-dashoffset:0;stroke-opacity:1;paint-order:normal" />
    <circle
       style="display:inline;opacity:1;vector-effect:none;fill:#0000ff;fill-opacity:1;fill-rule:evenodd;stroke:none;stroke-width:1;stroke-linecap:butt;stroke-linejoin:miter;stroke-miterlimit:4;stroke-dasharray:none;stroke-dashoffset:0;stroke-opacity:1;paint-order:normal"
       id="counter1ID"
       cx="22.936333"
       cy="89.43499"
       r="4"
       inkscape:label="Counter1" />
    <circle
       inkscape:label="Counter2"
       r="4"
       cy="101.50744"
       cx="22.936333"
       id="counter2ID"
       style="display:inline;opacity:1;vector-effect:none;fill:#0000ff;fill-opacity:1;fill-rule:evenodd;stroke:none;stroke-width:1;stroke-linecap:butt;stroke-linejoin:miter;stroke-miterlimit:4;stroke-dasharray:none;stroke-dashoffset:0;stroke-opacity:1;paint-order:normal" />
    <circle
       style="display:inline;opacity:1;vector-effect:none;fill:#0000ff;fill-opacity:1;fill-rule:evenodd;stroke:none;stroke-width:1;stroke-linecap:butt;stroke-linejoin:miter;stroke-miterlimit:4;stroke-dasharray:none;stroke-dashoffset:0;stroke-opacity:1;paint-order:normal"
       id="counter3ID"
       cx="22.936333"
       cy="113.57989"
       r="4"
       inkscape:label="Counter3" />
    <circle
       inkscape:label="PatternA"
       r="4"
       cy="65.290085"
       cx="8.6019993"
       id="PatternAID"
       style="display:inline;opacity:1;vector-effect:none;fill:#ff0000;fill-opacity:1;fill-rule:evenodd;stroke:none;stroke-width:1;stroke-linecap:butt;stroke-linejoin:miter;stroke-miterlimit:4;stroke-dasharray:none;stroke-dashoffset:0;stroke-opacity:1;paint-order:normal" />
    <circle
       style="display:inline;opacity:1;vector-effect:none;fill:#ff0000;fill-opacity:1;fill-rule:evenodd;stroke:none;stroke-width:1;stroke-linecap:butt;stroke-linejoin:miter;stroke-miterlimit:4;stroke-dasharray:none;stroke-dashoffset:0;stroke-opacity:1;paint-order:normal"
       id="patternBID"
       cx="8.6019993"
       cy="77.362534"
       r="4"
       inkscape:label="PatternB" />
  </g>
</svg>
